<svg xmlns="http://www.w3.org/2000/svg" version="1.1" xmlns:xlink="http://www.w3.org/1999/xlink" xmlns:svgjs="http://svgjs.dev/svgjs" width="1500" height="1500" viewBox="0 0 1500 1500"><rect width="1500" height="1500" fill="#ffffff"></rect><g transform="matrix(0.6666666666666666,0,0,0.6666666666666666,249.39393939393938,578.9518646971062)"><svg viewBox="0 0 396 136" data-background-color="#293040" preserveAspectRatio="xMidYMid meet" height="515" width="1500" xmlns="http://www.w3.org/2000/svg" xmlns:xlink="http://www.w3.org/1999/xlink"><g id="tight-bounds" transform="matrix(1,0,0,1,0.2400000000000091,-0.2450104819604917)"><svg viewBox="0 0 395.52 136.49002096392098" height="136.49002096392098" width="395.52"><g><svg viewBox="0 0 395.52 136.49002096392098" height="136.49002096392098" width="395.52"><g transform="matrix(1,0,0,1,0,82.09696642035448)"><svg viewBox="0 0 395.52 54.3930545435665" height="54.3930545435665" width="395.52"><g id="textblocktransform"><svg viewBox="0 0 395.52 54.3930545435665" height="54.3930545435665" width="395.52" id="textblock"><g><svg viewBox="0 0 395.52 29.337014525600082" height="29.337014525600082" width="395.52"><g transform="matrix(1,0,0,1,0,0)"><svg width="395.52" viewBox="2.5 -35.5 484.71000000000004 36" height="29.337014525600082" data-palette-color="#dee0e4"><g class="wordmark-text-0" data-fill-palette-color="primary" id="text-0"><path d="M12.05-12.05L12.05-0.7Q12.05 0.1 7.3 0.1L7.3 0.1Q2.5 0.1 2.5-0.65L2.5-0.65 2.5-33.25Q2.5-35 4.35-35L4.35-35 13.9-35Q27.05-35 27.05-24.75L27.05-24.75Q27.05-21.65 25.85-19.13 24.65-16.6 22.45-15.1L22.45-15.1 28.75-4.6Q28.35-3.4 26.15-1.85L26.15-1.85Q23.15 0.3 21.2 0.3 19.25 0.3 18.3-1.1L18.3-1.1 13.6-12.05 12.05-12.05ZM13.1-26.15L12.05-26.15 12.05-18.65 12.3-18.65Q17.05-18.65 17.05-22.6L17.05-22.6Q17.05-24.4 16.13-25.28 15.2-26.15 13.1-26.15L13.1-26.15ZM34.9-18.15L34.9-18.15Q33.5-20.65 33.5-22.23 33.5-23.8 34.35-24.25L34.35-24.25Q37.2-25.5 42.17-25.5 47.15-25.5 49.2-23.18 51.25-20.85 51.25-16.3L51.25-16.3 51.25-8.4 52.95-8.4Q53.8-8.4 54.27-7.4 54.75-6.4 54.75-4.65 54.75-2.9 53.87-1.2 53 0.5 51.5 0.5L51.5 0.5Q48.8 0.5 47.15-0.95L47.15-0.95Q46.4-1.55 46-2.4L46-2.4Q43.7 0.5 38.85 0.5L38.85 0.5Q35.2 0.5 32.7-2.1 30.2-4.7 30.2-8.25L30.2-8.25Q30.2-16.4 39.95-16.4L39.95-16.4 42.7-16.4 42.7-16.9Q42.7-18.2 42.27-18.57 41.85-18.95 40.3-18.95L40.3-18.95Q38.4-18.95 34.9-18.15ZM38.9-8.95L38.9-8.95Q38.9-7.85 39.5-7.28 40.1-6.7 41.02-6.7 41.95-6.7 42.7-7.45L42.7-7.45 42.7-11.3 41.3-11.3Q38.9-11.3 38.9-8.95ZM70.25-25.2L70.25-34.7Q70.25-35.45 74.19-35.45L74.19-35.45Q75.55-35.45 77.32-35.27 79.09-35.1 79.09-34.8L79.09-34.8 79.09-8.45 80.84-8.45Q82.09-8.45 82.5-6.2L82.5-6.2Q82.59-5.55 82.59-4.42 82.59-3.3 81.89-1.7L81.89-1.7Q80.89 0.5 78.69 0.5L78.69 0.5Q77.05 0.5 75.77-0.15 74.5-0.8 74.05-1.5L74.05-1.5 73.59-2.15Q70.84 0.5 66.69 0.5 62.55 0.5 59.59-2.95 56.64-6.4 56.64-12.58 56.64-18.75 59.74-22.13 62.84-25.5 67.5-25.5L67.5-25.5Q68.84-25.5 70.25-25.2L70.25-25.2ZM68.59-17.5L68.59-17.5Q65.8-17.5 65.8-12.45L65.8-12.45Q65.8-9.9 66.59-8.78 67.39-7.65 68.37-7.65 69.34-7.65 70.25-8.5L70.25-8.5 70.25-17Q69.39-17.5 68.59-17.5ZM94.99-24.85L94.99-0.3Q94.99 0.1 90.42 0.1 85.84 0.1 85.84-0.25L85.84-0.25 85.84-24.8Q85.84-25.15 90.42-25.15 94.99-25.15 94.99-24.85L94.99-24.85ZM94.99-35.15L94.99-27.8Q94.99-27.45 90.42-27.45 85.84-27.45 85.84-27.75L85.84-27.75 85.84-34.95Q85.84-35.45 90.42-35.45 94.99-35.45 94.99-35.15L94.99-35.15ZM101.67-2.95Q98.54-6.4 98.54-12.5 98.54-18.6 101.67-22.05 104.79-25.5 110.09-25.5 115.39-25.5 118.49-22.05 121.59-18.6 121.59-12.5 121.59-6.4 118.49-2.95 115.39 0.5 110.09 0.5 104.79 0.5 101.67-2.95ZM110.12-17.15Q107.29-17.15 107.29-12.55 107.29-7.95 110.12-7.95 112.94-7.95 112.94-12.55 112.94-17.15 110.12-17.15ZM135.59-16.35L135.59-0.3Q135.59 0.05 131.99 0.05L131.99 0.05Q126.99-0.1 126.99-0.5L126.99-0.5 126.99-16.7 125.69-16.7Q124.39-16.7 123.99-18.9L123.99-18.9Q123.89-19.55 123.89-20.2L123.89-20.2Q123.89-21.75 124.49-23.3L124.49-23.3Q125.39-25.5 127.29-25.5 129.19-25.5 130.69-24.6 132.19-23.7 132.69-22.8L132.69-22.8Q135.84-25.5 140.19-25.5 144.54-25.5 146.49-23.15 148.44-20.8 148.44-15.45L148.44-15.45 148.44-0.45Q148.44 0.15 144.16 0.15 139.89 0.15 139.89-0.45L139.89-0.45 139.89-14.9Q139.89-17.4 138.14-17.4L138.14-17.4Q137.64-17.4 136.74-16.98 135.84-16.55 135.59-16.35L135.59-16.35ZM161.84-24.85L161.84-0.3Q161.84 0.1 157.26 0.1 152.69 0.1 152.69-0.25L152.69-0.25 152.69-24.8Q152.69-25.15 157.26-25.15 161.84-25.15 161.84-24.85L161.84-24.85ZM161.84-35.15L161.84-27.8Q161.84-27.45 157.26-27.45 152.69-27.45 152.69-27.75L152.69-27.75 152.69-34.95Q152.69-35.45 157.26-35.45 161.84-35.45 161.84-35.15L161.84-35.15ZM174.53-12.4L174.53-12.4Q174.53-7.5 178.23-7.5L178.23-7.5Q180.63-7.5 182.23-8.45L182.23-8.45Q182.98-8.45 183.46-5.88 183.93-3.3 183.93-2.38 183.93-1.45 183.68-1.15L183.68-1.15Q181.03 0.5 176.43 0.5 171.83 0.5 168.61-2.93 165.38-6.35 165.38-12.28 165.38-18.2 168.56-21.85 171.73-25.5 177.01-25.5 182.28-25.5 184.33-22.95L184.33-22.95Q184.78-22.4 184.78-21.33 184.78-20.25 184.38-18.7L184.38-18.7Q183.48-15.5 182.03-15L182.03-15Q181.83-14.95 181.46-14.95 181.08-14.95 180.53-15.55L180.53-15.55Q178.58-17.5 177.41-17.5 176.23-17.5 175.38-16.3 174.53-15.1 174.53-12.4ZM190.68-18.15L190.68-18.15Q189.28-20.65 189.28-22.23 189.28-23.8 190.13-24.25L190.13-24.25Q192.98-25.5 197.96-25.5 202.93-25.5 204.98-23.18 207.03-20.85 207.03-16.3L207.03-16.3 207.03-8.4 208.73-8.4Q209.58-8.4 210.06-7.4 210.53-6.4 210.53-4.65 210.53-2.9 209.66-1.2 208.78 0.5 207.28 0.5L207.28 0.5Q204.58 0.5 202.93-0.95L202.93-0.95Q202.18-1.55 201.78-2.4L201.78-2.4Q199.48 0.5 194.63 0.5L194.63 0.5Q190.98 0.5 188.48-2.1 185.98-4.7 185.98-8.25L185.98-8.25Q185.98-16.4 195.73-16.4L195.73-16.4 198.48-16.4 198.48-16.9Q198.48-18.2 198.06-18.57 197.63-18.95 196.08-18.95L196.08-18.95Q194.18-18.95 190.68-18.15ZM194.68-8.95L194.68-8.95Q194.68-7.85 195.28-7.28 195.88-6.7 196.81-6.7 197.73-6.7 198.48-7.45L198.48-7.45 198.48-11.3 197.08-11.3Q194.68-11.3 194.68-8.95Z" fill="#000000" data-fill-palette-color="primary"></path><path d="M257.43 0.05L257.43 0.05Q252.98 0.05 252.98-0.95L252.98-0.95 251.93-21 245.83-0.7Q245.63-0.1 242.43-0.1 239.23-0.1 239.13-0.65L239.13-0.65 232.83-21.2 232.13-1.25Q232.08-0.5 230.23-0.23 228.38 0.05 227.15 0.05 225.93 0.05 224.78-0.1L224.78-0.1Q222.38-0.45 222.43-1.35L222.43-1.35 223.58-33.85Q223.58-35.05 229.68-35.05L229.68-35.05Q231.48-35.05 234.08-34.77 236.68-34.5 236.98-33.7L236.98-33.7 242.58-17.95 247.48-33.75Q247.93-35.05 254.38-35.05L254.38-35.05Q256.23-35.05 258.8-34.77 261.38-34.5 261.38-33.8L261.38-33.8 262.83-1Q262.83-0.45 260.88-0.2 258.93 0.05 257.43 0.05ZM270.68-18.15L270.68-18.15Q269.28-20.65 269.28-22.23 269.28-23.8 270.13-24.25L270.13-24.25Q272.98-25.5 277.95-25.5 282.93-25.5 284.98-23.18 287.03-20.85 287.03-16.3L287.03-16.3 287.03-8.4 288.73-8.4Q289.58-8.4 290.05-7.4 290.53-6.4 290.53-4.65 290.53-2.9 289.65-1.2 288.78 0.5 287.28 0.5L287.28 0.5Q284.58 0.5 282.93-0.95L282.93-0.95Q282.18-1.55 281.78-2.4L281.78-2.4Q279.48 0.5 274.62 0.5L274.62 0.5Q270.98 0.5 268.48-2.1 265.98-4.7 265.98-8.25L265.98-8.25Q265.98-16.4 275.73-16.4L275.73-16.4 278.48-16.4 278.48-16.9Q278.48-18.2 278.05-18.57 277.62-18.95 276.08-18.95L276.08-18.95Q274.18-18.95 270.68-18.15ZM274.68-8.95L274.68-8.95Q274.68-7.85 275.28-7.28 275.87-6.7 276.8-6.7 277.73-6.7 278.48-7.45L278.48-7.45 278.48-11.3 277.08-11.3Q274.68-11.3 274.68-8.95ZM301.72-16.55L301.72-0.35Q301.72 0.1 297.55 0.1 293.37 0.1 293.37-0.6L293.37-0.6 293.37-34.85Q293.37-35.2 294.92-35.35 296.47-35.5 297.52-35.5L297.52-35.5Q301.72-35.5 301.72-34.6L301.72-34.6 301.72-24.6Q304.52-25.45 305.97-25.45L305.97-25.45Q309.77-25.45 311.97-23.43 314.17-21.4 314.17-15.9L314.17-15.9 314.17-0.4Q314.17 0.05 310.27 0.05L310.27 0.05Q305.87-0.1 305.87-0.45L305.87-0.45 305.87-15.15Q305.87-17.6 304.27-17.6L304.27-17.6Q303.17-17.6 301.72-16.55L301.72-16.55ZM341.07-16.3L341.07-0.25Q341.07 0.1 336.8 0.1 332.52 0.1 332.52-0.35L332.52-0.35 332.52-14.9Q332.52-17.4 330.87-17.4L330.87-17.4Q330.02-17.4 328.62-16.3L328.62-16.3 328.62-0.3Q328.62 0.2 324.34 0.2 320.07 0.2 320.07-0.35L320.07-0.35 320.07-16.7 318.82-16.7Q317.17-16.7 317.17-20.15L317.17-20.15Q317.17-21.7 317.77-23.3L317.77-23.3Q318.57-25.5 320.37-25.5 322.17-25.5 323.84-24.55 325.52-23.6 325.87-22.75L325.87-22.75Q328.97-25.5 332.75-25.5 336.52-25.5 338.82-23.15L338.82-23.15Q341.52-25.5 345.32-25.5L345.32-25.5Q353.57-25.5 353.57-15.45L353.57-15.45 353.57-0.25Q353.57 0.1 349.29 0.1 345.02 0.1 345.02-0.35L345.02-0.35 345.02-14.9Q345.02-17.4 343.37-17.4L343.37-17.4Q342.47-17.4 341.07-16.3L341.07-16.3ZM357.57-9.95L357.57-24.7Q357.57-25.25 361.87-25.25 366.17-25.25 366.17-24.7L366.17-24.7 366.17-10.1Q366.17-7.6 367.77-7.6L367.77-7.6Q368.97-7.6 370.47-8.65L370.47-8.65 370.47-24.7Q370.47-25.2 374.72-25.2 378.97-25.2 378.97-24.7L378.97-24.7 378.97-8.3 380.27-8.3Q381.97-8.3 381.97-5.05L381.97-5.05Q381.97-3.4 381.27-1.7L381.27-1.7Q380.27 0.5 378.57 0.5L378.57 0.5Q375.22 0.5 373.62-2.25L373.62-2.25 373.57-2.2Q370.52 0.5 367.02 0.5L367.02 0.5Q362.17 0.5 359.87-1.93 357.57-4.35 357.57-9.95L357.57-9.95ZM396.52-18L396.52-0.3Q396.52 0.3 392.32 0.3L392.32 0.3Q387.32 0.1 387.32-0.35L387.32-0.35 387.32-18.05 384.77-18.05Q383.77-18.05 383.77-21.5L383.77-21.5Q383.77-22.4 383.94-23.7 384.12-25 384.67-25L384.67-25 387.32-25 387.32-29.4Q387.32-30.4 391.54-30.4 395.77-30.4 395.77-29.6L395.77-29.6 395.77-26.4 395.82-25 400.07-25Q400.92-25 400.92-21.5 400.92-18 400.07-18L400.07-18 396.52-18ZM405.59-2.95Q402.46-6.4 402.46-12.5 402.46-18.6 405.59-22.05 408.71-25.5 414.01-25.5 419.31-25.5 422.41-22.05 425.51-18.6 425.51-12.5 425.51-6.4 422.41-2.95 419.31 0.5 414.01 0.5 408.71 0.5 405.59-2.95ZM414.04-17.15Q411.21-17.15 411.21-12.55 411.21-7.95 414.04-7.95 416.86-7.95 416.86-12.55 416.86-17.15 414.04-17.15ZM433.56-0.6L427.11-24.85Q426.96-25.25 431.79-25.25 436.61-25.25 436.61-25L436.61-25 440.21-8 442.91-24.75Q443.06-25.2 447.86-25.2L447.86-25.2Q452.71-25.2 452.56-24.8L452.56-24.8 445.51-0.35Q445.16 0.15 439.56 0.15 433.96 0.15 433.56-0.6L433.56-0.6ZM464.26-24.85L464.26-0.3Q464.26 0.1 459.68 0.1 455.11 0.1 455.11-0.25L455.11-0.25 455.11-24.8Q455.11-25.15 459.68-25.15 464.26-25.15 464.26-24.85L464.26-24.85ZM464.26-35.15L464.26-27.8Q464.26-27.45 459.68-27.45 455.11-27.45 455.11-27.75L455.11-27.75 455.11-34.95Q455.11-35.45 459.68-35.45 464.26-35.45 464.26-35.15L464.26-35.15ZM476.96-12.4L476.96-12.4Q476.96-7.5 480.66-7.5L480.66-7.5Q483.06-7.5 484.66-8.45L484.66-8.45Q485.41-8.45 485.88-5.88 486.36-3.3 486.36-2.38 486.36-1.45 486.11-1.15L486.11-1.15Q483.46 0.5 478.86 0.5 474.26 0.5 471.03-2.93 467.81-6.35 467.81-12.28 467.81-18.2 470.98-21.85 474.16-25.5 479.43-25.5 484.71-25.5 486.76-22.95L486.76-22.95Q487.21-22.4 487.21-21.33 487.21-20.25 486.81-18.7L486.81-18.7Q485.91-15.5 484.46-15L484.46-15Q484.26-14.95 483.88-14.95 483.51-14.95 482.96-15.55L482.96-15.55Q481.01-17.5 479.83-17.5 478.66-17.5 477.81-16.3 476.96-15.1 476.96-12.4Z" fill="#000000" data-fill-palette-color="accent"></path></g></svg></g></svg></g><g transform="matrix(1,0,0,1,0,36.26277956674565)"><svg viewBox="0 0 395.52 18.13027497682085" height="18.13027497682085" width="395.52"><g transform="matrix(1,0,0,1,0,0)"><svg width="395.52" viewBox="4.15 -36.5 1050.4099999999999 48.15" height="18.13027497682085" data-palette-color="#dee0e4"><path d="M18.1-18.35Q21.95-17.75 23.98-15.48 26-13.2 26-9.4L26-9.4Q26-4.3 22.5-2.15 19 0 12 0L12 0 7.2 0Q6.15 0 5.5-0.6 4.85-1.2 4.8-2.25L4.8-2.25 4.8-28.85Q4.8-30.05 4.65-31.63 4.5-33.2 4.15-34.2L4.15-34.2Q6.25-35.3 11.3-35.3L11.3-35.3Q17.75-35.3 21-33.27 24.25-31.25 24.25-26.8L24.25-26.8Q24.25-23.7 22.65-21.48 21.05-19.25 18.1-18.35L18.1-18.35ZM11.1-33.5Q9.35-33.5 8.85-33.4L8.85-33.4 8.85-19.1 13.05-19.1Q16.15-19.05 18.07-21 20-22.95 20-26.55L20-26.55Q20-30.15 17.93-31.83 15.85-33.5 11.1-33.5L11.1-33.5ZM12.15-1.85Q16.9-1.85 19.28-3.63 21.65-5.4 21.65-9.35L21.65-9.35Q21.65-13.75 19.23-15.5 16.8-17.25 12.15-17.25L12.15-17.25 8.85-17.25 8.85-1.85 12.15-1.85ZM63.46-26.05Q66.06-26.05 67.64-24.68 69.21-23.3 69.21-20.85L69.21-20.85Q69.21-19.2 68.26-18.13 67.31-17.05 66.01-17.05L66.01-17.05Q64.91-17.05 64.51-17.55L64.51-17.55Q65.06-18.4 65.26-19.13 65.46-19.85 65.46-20.75L65.46-20.75Q65.46-23.85 62.56-23.85L62.56-23.85Q60.31-23.85 58.79-20.98 57.26-18.1 57.26-12.05L57.26-12.05 57.26-9.35Q57.26-4.85 57.36-3.25 57.46-1.65 57.91-0.45L57.91-0.45Q56.86 0.45 55.56 0.45L55.56 0.45Q54.56 0.45 53.91-0.18 53.26-0.8 53.26-1.9L53.26-1.9 53.26-20.3Q53.26-21.7 52.94-22.3 52.61-22.9 51.86-22.9L51.86-22.9Q50.91-22.9 50.56-22.1L50.56-22.1Q49.96-22.95 49.96-23.7L49.96-23.7Q49.96-24.75 50.76-25.38 51.56-26 52.96-26L52.96-26Q54.91-26 55.89-24.63 56.86-23.25 56.81-20.55L56.81-20.55 56.81-20.3Q57.66-23.15 59.36-24.6 61.06-26.05 63.46-26.05L63.46-26.05ZM96.78-30Q95.68-30 94.88-30.8 94.08-31.6 94.08-32.7L94.08-32.7Q94.08-33.85 94.88-34.63 95.68-35.4 96.78-35.4L96.78-35.4Q97.93-35.4 98.7-34.63 99.48-33.85 99.48-32.7L99.48-32.7Q99.48-31.6 98.7-30.8 97.93-30 96.78-30L96.78-30ZM98.98-5.7Q98.98-2.05 99.63-0.35L99.63-0.35Q98.58 0.55 97.33 0.55L97.33 0.55Q96.33 0.55 95.7-0.05 95.08-0.65 95.08-1.65L95.08-1.65 95.03-19.8Q95.03-23.25 94.38-25.15L94.38-25.15Q95.43-26.05 96.68-26.05L96.68-26.05Q97.68-26.05 98.3-25.48 98.93-24.9 98.93-23.85L98.93-23.85 98.98-5.7ZM147.99-5.7Q148.09-1.9 148.64-0.35L148.64-0.35Q147.64 0.55 146.34 0.55L146.34 0.55Q145.29 0.55 144.64-0.05 143.99-0.65 143.99-1.65L143.99-1.65 143.99-15.15Q143.94-19.5 142.76-21.6 141.59-23.7 138.79-23.7L138.79-23.7Q137.04-23.7 135.41-22.5 133.79-21.3 132.74-18.7 131.69-16.1 131.69-12.05L131.69-12.05Q131.69-5.6 131.79-3.65 131.89-1.7 132.39-0.35L132.39-0.35Q131.34 0.55 130.09 0.55L130.09 0.55Q129.04 0.55 128.39-0.1 127.74-0.75 127.74-1.85L127.74-1.85 127.74-20.3Q127.69-21.7 127.36-22.3 127.04-22.9 126.34-22.9L126.34-22.9Q125.39-22.9 125.04-22.1L125.04-22.1Q124.44-22.95 124.44-23.7L124.44-23.7Q124.44-24.75 125.24-25.38 126.04-26 127.44-26L127.44-26Q129.34-26 130.34-24.7 131.34-23.4 131.34-20.85L131.34-20.85 131.34-19.85Q132.39-22.8 134.64-24.43 136.89-26.05 139.94-26.05L139.94-26.05Q147.99-26.05 147.99-15.65L147.99-15.65 147.99-5.7ZM182.45 11.65Q178.8 11.65 176.38 10.13 173.95 8.6 173.95 5.65L173.95 5.65Q173.95 4 174.83 2.98 175.7 1.95 177.05 1.95L177.05 1.95Q178.45 1.95 179.05 2.7L179.05 2.7Q177.65 3.75 177.65 5.75L177.65 5.75Q177.65 7.8 179 8.88 180.35 9.95 182.6 9.95L182.6 9.95Q186.85 9.95 188.88 6.88 190.9 3.8 190.9-2.25L190.9-2.25 190.9-5.65Q190-2.85 187.85-1.33 185.7 0.2 182.6 0.2L182.6 0.2Q173.75 0.2 173.75-12.4L173.75-12.4Q173.75-18.15 176.28-22.1 178.8-26.05 185.15-26.05L185.15-26.05Q187.95-26.05 190.58-25.28 193.2-24.5 194.85-22.75L194.85-22.75 194.85-2.25Q194.85 11.65 182.45 11.65L182.45 11.65ZM183.65-2Q187.35-2 189.1-5.05 190.85-8.1 190.9-12.4L190.9-12.4 190.95-22.35Q190.1-23.25 188.55-23.73 187-24.2 185.1-24.2L185.1-24.2Q180.95-24.2 179.48-20.85 178-17.5 178-12L178-12Q178-6.7 179.38-4.35 180.75-2 183.65-2L183.65-2ZM273.63-5.7Q273.73-1.9 274.28-0.35L274.28-0.35Q273.28 0.55 271.98 0.55L271.98 0.55Q270.93 0.55 270.28-0.05 269.63-0.65 269.63-1.65L269.63-1.65 269.63-15.15Q269.58-19.5 268.4-21.6 267.23-23.7 264.43-23.7L264.43-23.7Q262.68-23.7 261.05-22.5 259.43-21.3 258.38-18.7 257.33-16.1 257.33-12.05L257.33-12.05Q257.33-5.6 257.43-3.65 257.53-1.7 258.03-0.35L258.03-0.35Q256.98 0.55 255.73 0.55L255.73 0.55Q254.68 0.55 254.03-0.1 253.38-0.75 253.38-1.85L253.38-1.85 253.38-20.3Q253.33-21.7 253-22.3 252.68-22.9 251.98-22.9L251.98-22.9Q251.03-22.9 250.68-22.1L250.68-22.1Q250.08-22.95 250.08-23.7L250.08-23.7Q250.08-24.75 250.88-25.38 251.68-26 253.08-26L253.08-26Q254.98-26 255.98-24.7 256.98-23.4 256.98-20.85L256.98-20.85 256.98-19.85Q258.03-22.8 260.28-24.43 262.53-26.05 265.58-26.05L265.58-26.05Q273.63-26.05 273.63-15.65L273.63-15.65 273.63-5.7ZM323.64-3.65Q324.19-2.9 324.19-2.1L324.19-2.1Q324.19-1 323.17-0.25 322.14 0.5 320.69 0.5L320.69 0.5Q318.54 0.5 317.44-1 316.34-2.5 316.34-5.7L316.34-5.7 316.34-7.15Q314.69-3.6 311.87-1.53 309.04 0.55 305.69 0.55L305.69 0.55Q302.79 0.55 301.12-1.03 299.44-2.6 299.44-5.25L299.44-5.25Q299.44-8.2 301.69-10.25 303.94-12.3 307.74-13.35L307.74-13.35Q311.09-14.25 314.69-14.25L314.69-14.25Q315.69-14.25 316.14-14.2L316.14-14.2 316.14-15.5Q316.14-19.95 314.67-22.1 313.19-24.25 309.79-24.25L309.79-24.25Q307.59-24.25 306.09-23.3 304.59-22.35 304.59-20.2L304.59-20.2Q304.59-19.05 305.12-18.05 305.64-17.05 306.74-16.65L306.74-16.65Q305.94-15.65 304.34-15.65L304.34-15.65Q302.69-15.65 301.64-16.98 300.59-18.3 300.59-20.05L300.59-20.05Q300.59-22.95 303.14-24.5 305.69-26.05 310.14-26.05L310.14-26.05Q315.29-26.05 317.74-23.4 320.19-20.75 320.19-15.25L320.19-15.25 320.19-5.25Q320.19-2.6 321.99-2.6L321.99-2.6Q322.39-2.6 322.89-2.88 323.39-3.15 323.64-3.65L323.64-3.65ZM307.29-2.25Q309.29-2.25 311.37-3.73 313.44-5.2 314.82-7.6 316.19-10 316.24-12.6L316.24-12.6 315.09-12.65Q313.34-12.65 311.54-12.38 309.74-12.1 308.49-11.6L308.49-11.6Q306.29-10.8 305.04-9.4 303.79-8 303.79-6.1L303.79-6.1Q303.79-4.45 304.64-3.35 305.49-2.25 307.29-2.25L307.29-2.25ZM355.2-25.35Q356-25.35 357.33-25.4 358.65-25.45 359.45-25.5L359.45-25.5 359.4-24.4Q359.35-23.9 359.05-23.58 358.75-23.25 358.3-23.25L358.3-23.25 353.15-23.25 353.15-21.35 353.15-5.25Q353.15-3.95 353.75-3.25 354.35-2.55 355.55-2.55L355.55-2.55Q356.3-2.55 356.98-2.83 357.65-3.1 357.9-3.6L357.9-3.6Q358.45-2.85 358.45-2L358.45-2Q358.45-0.85 357.25-0.15 356.05 0.55 354.2 0.55L354.2 0.55Q351.85 0.55 350.5-0.93 349.15-2.4 349.15-5L349.15-5 349.15-23.25 348.45-23.25Q346.4-23.25 345.45-23.1L345.45-23.1 345.5-24.25Q345.55-25.35 346.6-25.35L346.6-25.35 349.15-25.35 349.15-29.8Q349.15-30.85 349.8-31.43 350.45-32 351.5-32L351.5-32Q352.75-32 353.8-31.1L353.8-31.1Q353.25-29.4 353.2-25.35L353.2-25.35 355.2-25.35ZM407.52-3.35Q408.12-2.55 408.12-1.8L408.12-1.8Q408.12-0.75 407.32-0.13 406.52 0.5 405.12 0.5L405.12 0.5Q401.22 0.5 401.22-4.6L401.22-4.6 401.22-5.6Q400.17-2.65 397.97-1 395.77 0.65 392.82 0.65L392.82 0.65Q388.72 0.65 386.87-1.75 385.02-4.15 384.97-9.85L384.97-9.85 384.97-19.75Q384.97-23.2 384.32-25.15L384.32-25.15Q385.42-26.05 386.67-26.05L386.67-26.05Q387.67-26.05 388.29-25.45 388.92-24.85 388.92-23.8L388.92-23.8 388.97-10.35Q388.97-7.1 389.44-5.2 389.92-3.3 390.99-2.43 392.07-1.55 393.97-1.55L393.97-1.55Q395.67-1.55 397.24-2.78 398.82-4 399.84-6.68 400.87-9.35 400.87-13.45L400.87-13.45Q400.87-19.9 400.77-21.85 400.67-23.8 400.17-25.15L400.17-25.15Q401.22-26.05 402.47-26.05L402.47-26.05Q403.47-26.05 404.12-25.4 404.77-24.75 404.77-23.65L404.77-23.65 404.82-5.15Q404.82-3.75 405.14-3.18 405.47-2.6 406.22-2.6L406.22-2.6Q407.12-2.6 407.52-3.35L407.52-3.35ZM443.88-26.05Q446.48-26.05 448.06-24.68 449.63-23.3 449.63-20.85L449.63-20.85Q449.63-19.2 448.68-18.13 447.73-17.05 446.43-17.05L446.43-17.05Q445.33-17.05 444.93-17.55L444.93-17.55Q445.48-18.4 445.68-19.13 445.88-19.85 445.88-20.75L445.88-20.75Q445.88-23.85 442.98-23.85L442.98-23.85Q440.73-23.85 439.21-20.98 437.68-18.1 437.68-12.05L437.68-12.05 437.68-9.35Q437.68-4.85 437.78-3.25 437.88-1.65 438.33-0.45L438.33-0.45Q437.28 0.45 435.98 0.45L435.98 0.45Q434.98 0.45 434.33-0.18 433.68-0.8 433.68-1.9L433.68-1.9 433.68-20.3Q433.68-21.7 433.36-22.3 433.03-22.9 432.28-22.9L432.28-22.9Q431.33-22.9 430.98-22.1L430.98-22.1Q430.38-22.95 430.38-23.7L430.38-23.7Q430.38-24.75 431.18-25.38 431.98-26 433.38-26L433.38-26Q435.33-26 436.31-24.63 437.28-23.25 437.23-20.55L437.23-20.55 437.23-20.3Q438.08-23.15 439.78-24.6 441.48-26.05 443.88-26.05L443.88-26.05ZM493.19-6.45Q493.94-6.2 493.94-5.3L493.94-5.3Q493.94-4.8 493.64-3.95L493.64-3.95Q492.69-1.75 490.32-0.55 487.94 0.65 484.74 0.65L484.74 0.65Q479.24 0.65 476.14-2.78 473.04-6.2 473.04-12.55L473.04-12.55Q473.04-18.85 476.12-22.45 479.19-26.05 484.94-26.05L484.94-26.05Q489.09-26.05 491.59-24.18 494.09-22.3 494.09-18.85L494.09-18.85Q494.09-15.15 491.09-13.2 488.09-11.25 482.74-11.25L482.74-11.25Q479.79-11.25 477.34-11.6L477.34-11.6Q477.64-6.55 479.87-4.33 482.09-2.1 485.69-2.1L485.69-2.1Q488.44-2.1 490.44-3.23 492.44-4.35 493.19-6.45L493.19-6.45ZM484.79-24.25Q481.39-24.25 479.37-21.43 477.34-18.6 477.29-13.3L477.29-13.3Q479.69-13.1 481.19-13.05L481.19-13.05Q485.19-13.05 487.52-14.48 489.84-15.9 489.84-19.35L489.84-19.35Q489.84-22 488.39-23.13 486.94-24.25 484.79-24.25L484.79-24.25ZM553.12-30Q552.02-30 551.22-30.8 550.42-31.6 550.42-32.7L550.42-32.7Q550.42-33.85 551.22-34.63 552.02-35.4 553.12-35.4L553.12-35.4Q554.27-35.4 555.04-34.63 555.82-33.85 555.82-32.7L555.82-32.7Q555.82-31.6 555.04-30.8 554.27-30 553.12-30L553.12-30ZM555.32-5.7Q555.32-2.05 555.97-0.35L555.97-0.35Q554.92 0.55 553.67 0.55L553.67 0.55Q552.67 0.55 552.04-0.05 551.42-0.65 551.42-1.65L551.42-1.65 551.37-19.8Q551.37-23.25 550.72-25.15L550.72-25.15Q551.77-26.05 553.02-26.05L553.02-26.05Q554.02-26.05 554.64-25.48 555.27-24.9 555.27-23.85L555.27-23.85 555.32-5.7ZM604.33-5.7Q604.43-1.9 604.98-0.35L604.98-0.35Q603.98 0.55 602.68 0.55L602.68 0.55Q601.63 0.55 600.98-0.05 600.33-0.65 600.33-1.65L600.33-1.65 600.33-15.15Q600.28-19.5 599.11-21.6 597.93-23.7 595.13-23.7L595.13-23.7Q593.38-23.7 591.76-22.5 590.13-21.3 589.08-18.7 588.03-16.1 588.03-12.05L588.03-12.05Q588.03-5.6 588.13-3.65 588.23-1.7 588.73-0.35L588.73-0.35Q587.68 0.55 586.43 0.55L586.43 0.55Q585.38 0.55 584.73-0.1 584.08-0.75 584.08-1.85L584.08-1.85 584.08-20.3Q584.03-21.7 583.71-22.3 583.38-22.9 582.68-22.9L582.68-22.9Q581.73-22.9 581.38-22.1L581.38-22.1Q580.78-22.95 580.78-23.7L580.78-23.7Q580.78-24.75 581.58-25.38 582.38-26 583.78-26L583.78-26Q585.68-26 586.68-24.7 587.68-23.4 587.68-20.85L587.68-20.85 587.68-19.85Q588.73-22.8 590.98-24.43 593.23-26.05 596.28-26.05L596.28-26.05Q604.33-26.05 604.33-15.65L604.33-15.65 604.33-5.7ZM682.26-23.65L682.31-2.45Q682.31 11.65 670.56 11.65L670.56 11.65Q666.96 11.65 664.48 10.35 662.01 9.05 662.01 6.25L662.01 6.25Q662.01 4.85 662.83 3.9 663.66 2.95 665.01 2.95L665.01 2.95Q666.36 2.95 666.96 3.7L666.96 3.7Q666.31 4.1 666.01 4.78 665.71 5.45 665.71 6.05L665.71 6.05Q665.71 8 667.13 8.97 668.56 9.95 670.56 9.95L670.56 9.95Q674.66 9.95 676.61 6.85 678.56 3.75 678.56-2.4L678.56-2.4Q678.56-4.05 678.71-6L678.71-6Q677.66-2.95 675.46-1.25 673.26 0.45 670.06 0.45L670.06 0.45Q666.21 0.45 664.36-1.98 662.51-4.4 662.46-10.05L662.46-10.05 662.46-19.75Q662.46-23.2 661.81-25.15L661.81-25.15Q662.91-26.05 664.16-26.05L664.16-26.05Q665.16-26.05 665.78-25.45 666.41-24.85 666.41-23.8L666.41-23.8 666.46-10.55Q666.46-5.95 667.53-3.88 668.61-1.8 671.11-1.8L671.11-1.8Q674.16-1.8 676.26-4.73 678.36-7.65 678.36-13.7L678.36-13.7Q678.36-20 678.26-21.9 678.16-23.8 677.66-25.15L677.66-25.15Q678.71-26.05 679.96-26.05L679.96-26.05Q680.96-26.05 681.61-25.4 682.26-24.75 682.26-23.65L682.26-23.65ZM719.27 0.65Q713.87 0.65 710.85-2.88 707.82-6.4 707.82-12.7L707.82-12.7Q707.82-19 710.85-22.53 713.87-26.05 719.27-26.05L719.27-26.05Q724.72-26.05 727.75-22.53 730.77-19 730.77-12.7L730.77-12.7Q730.77-6.4 727.75-2.88 724.72 0.65 719.27 0.65L719.27 0.65ZM719.27-1.15Q722.77-1.15 724.62-4.13 726.47-7.1 726.47-12.7L726.47-12.7Q726.47-18.3 724.62-21.25 722.77-24.2 719.27-24.2L719.27-24.2Q715.77-24.2 713.92-21.25 712.07-18.3 712.07-12.7L712.07-12.7Q712.07-7.1 713.92-4.13 715.77-1.15 719.27-1.15L719.27-1.15ZM779.14-3.35Q779.74-2.55 779.74-1.8L779.74-1.8Q779.74-0.75 778.94-0.13 778.14 0.5 776.74 0.5L776.74 0.5Q772.84 0.5 772.84-4.6L772.84-4.6 772.84-5.6Q771.79-2.65 769.59-1 767.39 0.65 764.44 0.65L764.44 0.65Q760.34 0.65 758.49-1.75 756.64-4.15 756.59-9.85L756.59-9.85 756.59-19.75Q756.59-23.2 755.94-25.15L755.94-25.15Q757.04-26.05 758.29-26.05L758.29-26.05Q759.29-26.05 759.91-25.45 760.54-24.85 760.54-23.8L760.54-23.8 760.59-10.35Q760.59-7.1 761.06-5.2 761.54-3.3 762.61-2.43 763.69-1.55 765.59-1.55L765.59-1.55Q767.29-1.55 768.86-2.78 770.44-4 771.46-6.68 772.49-9.35 772.49-13.45L772.49-13.45Q772.49-19.9 772.39-21.85 772.29-23.8 771.79-25.15L771.79-25.15Q772.84-26.05 774.09-26.05L774.09-26.05Q775.09-26.05 775.74-25.4 776.39-24.75 776.39-23.65L776.39-23.65 776.44-5.15Q776.44-3.75 776.76-3.18 777.09-2.6 777.84-2.6L777.84-2.6Q778.74-2.6 779.14-3.35L779.14-3.35ZM815.5-26.05Q818.1-26.05 819.67-24.68 821.25-23.3 821.25-20.85L821.25-20.85Q821.25-19.2 820.3-18.13 819.35-17.05 818.05-17.05L818.05-17.05Q816.95-17.05 816.55-17.55L816.55-17.55Q817.1-18.4 817.3-19.13 817.5-19.85 817.5-20.75L817.5-20.75Q817.5-23.85 814.6-23.85L814.6-23.85Q812.35-23.85 810.82-20.98 809.3-18.1 809.3-12.05L809.3-12.05 809.3-9.35Q809.3-4.85 809.4-3.25 809.5-1.65 809.95-0.45L809.95-0.45Q808.9 0.45 807.6 0.45L807.6 0.45Q806.6 0.45 805.95-0.18 805.3-0.8 805.3-1.9L805.3-1.9 805.3-20.3Q805.3-21.7 804.97-22.3 804.65-22.9 803.9-22.9L803.9-22.9Q802.95-22.9 802.6-22.1L802.6-22.1Q802-22.95 802-23.7L802-23.7Q802-24.75 802.8-25.38 803.6-26 805-26L805-26Q806.95-26 807.92-24.63 808.9-23.25 808.85-20.55L808.85-20.55 808.85-20.3Q809.7-23.15 811.4-24.6 813.1-26.05 815.5-26.05L815.5-26.05ZM897.42-5.7Q897.42-2.1 898.02-0.35L898.02-0.35Q897.02 0.55 895.72 0.55L895.72 0.55Q894.72 0.55 894.1-0.05 893.47-0.65 893.47-1.65L893.47-1.65 893.42-15.15Q893.42-19.55 892.25-21.7 891.07-23.85 888.22-23.85L888.22-23.85Q886.47-23.85 884.85-22.63 883.22-21.4 882.2-18.75 881.17-16.1 881.17-12.05L881.17-12.05Q881.17-5.6 881.27-3.65 881.37-1.7 881.87-0.35L881.87-0.35Q880.82 0.55 879.57 0.55L879.57 0.55Q878.52 0.55 877.9-0.1 877.27-0.75 877.27-1.85L877.27-1.85 877.22-34.3Q877.22-35.4 877.82-35.95 878.42-36.5 879.47-36.5L879.47-36.5Q880.22-36.5 880.87-36.23 881.52-35.95 881.87-35.6L881.87-35.6Q881.47-34.35 881.35-32.63 881.22-30.9 881.17-27.8L881.17-27.8 881.12-20.25Q882.22-23 884.37-24.53 886.52-26.05 889.37-26.05L889.37-26.05Q893.47-26.05 895.42-23.43 897.37-20.8 897.37-15.65L897.37-15.65 897.42-5.7ZM934.59 0.65Q929.19 0.65 926.16-2.88 923.14-6.4 923.14-12.7L923.14-12.7Q923.14-19 926.16-22.53 929.19-26.05 934.59-26.05L934.59-26.05Q940.04-26.05 943.06-22.53 946.09-19 946.09-12.7L946.09-12.7Q946.09-6.4 943.06-2.88 940.04 0.65 934.59 0.65L934.59 0.65ZM934.59-1.15Q938.09-1.15 939.94-4.13 941.79-7.1 941.79-12.7L941.79-12.7Q941.79-18.3 939.94-21.25 938.09-24.2 934.59-24.2L934.59-24.2Q931.09-24.2 929.24-21.25 927.39-18.3 927.39-12.7L927.39-12.7Q927.39-7.1 929.24-4.13 931.09-1.15 934.59-1.15L934.59-1.15ZM1007.75-5.7Q1007.75-2.25 1008.4-0.35L1008.4-0.35Q1007.3 0.55 1006.1 0.55L1006.1 0.55Q1005.1 0.55 1004.45-0.05 1003.8-0.65 1003.8-1.65L1003.8-1.65 1003.8-15.15Q1003.8-19.45 1002.75-21.65 1001.7-23.85 999.05-23.85L999.05-23.85Q997.45-23.85 995.95-22.7 994.45-21.55 993.43-19.03 992.4-16.5 992.35-12.7L992.35-12.7 992.4-5.7Q992.4-2.1 993-0.35L993-0.35Q992 0.55 990.75 0.55L990.75 0.55Q989.75 0.55 989.15-0.05 988.55-0.65 988.55-1.65L988.55-1.65 988.5-15.15Q988.5-19.6 987.4-21.73 986.3-23.85 983.6-23.85L983.6-23.85Q981.95-23.85 980.48-22.63 979-21.4 978.05-18.68 977.1-15.95 977.1-11.75L977.1-11.75Q977.1-5.45 977.2-3.55 977.3-1.65 977.8-0.35L977.8-0.35Q976.75 0.55 975.5 0.55L975.5 0.55Q974.45 0.55 973.83-0.1 973.2-0.75 973.2-1.85L973.2-1.85 973.15-20.25Q973.15-21.55 972.7-22.23 972.25-22.9 971.4-22.9L971.4-22.9Q970.95-22.9 970.5-22.63 970.05-22.35 969.85-21.85L969.85-21.85Q969.3-22.55 969.3-23.4L969.3-23.4Q969.3-24.55 970.2-25.28 971.1-26 972.4-26L972.4-26Q974.45-26 975.58-24.58 976.7-23.15 976.7-20.45L976.7-20.45 976.7-19.65Q977.7-22.65 979.8-24.35 981.9-26.05 984.75-26.05L984.75-26.05Q990.85-26.05 992-19.55L992-19.55Q992.9-22.6 995.05-24.33 997.2-26.05 1000.15-26.05L1000.15-26.05Q1004.05-26.05 1005.9-23.43 1007.75-20.8 1007.75-15.65L1007.75-15.65 1007.75-5.7ZM1053.66-6.45Q1054.41-6.2 1054.41-5.3L1054.41-5.3Q1054.41-4.8 1054.11-3.95L1054.11-3.95Q1053.16-1.75 1050.79-0.55 1048.41 0.65 1045.21 0.65L1045.21 0.65Q1039.71 0.65 1036.61-2.78 1033.51-6.2 1033.51-12.55L1033.51-12.55Q1033.51-18.85 1036.59-22.45 1039.66-26.05 1045.41-26.05L1045.41-26.05Q1049.56-26.05 1052.06-24.18 1054.56-22.3 1054.56-18.85L1054.56-18.85Q1054.56-15.15 1051.56-13.2 1048.56-11.25 1043.21-11.25L1043.21-11.25Q1040.26-11.25 1037.81-11.6L1037.81-11.6Q1038.11-6.55 1040.34-4.33 1042.56-2.1 1046.16-2.1L1046.16-2.1Q1048.91-2.1 1050.91-3.23 1052.91-4.35 1053.66-6.45L1053.66-6.45ZM1045.26-24.25Q1041.86-24.25 1039.84-21.43 1037.81-18.6 1037.76-13.3L1037.76-13.3Q1040.16-13.1 1041.66-13.05L1041.66-13.05Q1045.66-13.05 1047.99-14.48 1050.31-15.9 1050.31-19.35L1050.31-19.35Q1050.31-22 1048.86-23.13 1047.41-24.25 1045.26-24.25L1045.26-24.25Z" opacity="1" transform="matrix(1,0,0,1,0,0)" fill="#000000" class="slogan-text-1" data-fill-palette-color="secondary" id="text-1"></path></svg></g></svg></g></svg></g></svg></g><g transform="matrix(1,0,0,1,137.86793091245747,0)"><svg viewBox="0 0 119.78413817508505 75.17120137920891" height="75.17120137920891" width="119.78413817508505"><g><svg xmlns="http://www.w3.org/2000/svg" xmlns:xlink="http://www.w3.org/1999/xlink" version="1.1" x="0" y="0" viewBox="5.062 21.778 90.00000000000001 56.48" enable-background="new 0 0 100 100" xml:space="preserve" height="75.17120137920891" width="119.78413817508505" class="icon-icon-0" data-fill-palette-color="accent" id="icon-0"><path d="M5.062 56.786v6.137l0.5 0.833 27.012 14.39 0.006-0.001c0.133 0.07 0.285 0.113 0.44 0.113 0.155 0 0.313-0.039 0.459-0.121l61.1-34.088 0.483-0.825v-6.015c0-0.356-0.205-0.654-0.493-0.815v-0.016l-27.012-14.6-0.909 0.006L5.545 55.875c-0.335 0.186-0.509 0.548-0.478 0.908L5.062 56.786zM7.892 56.725l39.982-22.306c-4.958 8.574-16.278 15.095-23.335 17.139-7.565 2.19-10.355 3.604-14.547 6.284L7.892 56.725zM73.166 26.956c-2.078 1.684-4.081 2.508-7.24 3.792-0.772 0.313-1.612 0.654-2.539 1.043-8.88 3.723-13.565 8.414-14.133 11.766-0.465 2.738-9.891 6.268-17.568 9.087-6.241 2.295-11.633 4.273-12.808 5.925-1.185 1.662-1.988 2.381-2.468 2.692l-5.463-2.909c3.569-2.267 6.375-3.724 13.856-5.888 7.565-2.192 19.918-9.437 24.581-18.887l17.729-9.892L73.166 26.956zM29.23 68.091c3.398-1.451 11.509-5.084 13.382-7.423 1.339-1.678 5.249-0.896 7.64-0.068l-17.133 9.563L29.23 68.091zM21.181 63.803c0.785-0.834 2.307-2.096 4.698-2.661 6.548-1.546 28.233-13.043 28.479-13.161 1.565-0.766 1.225-1.863 0.952-2.747-0.366-1.172-0.741-2.384 1.798-4.152 1.733-1.208 7.612-3.497 11.193-1.742 0.465 0.229 0.704 0.608 0.725 1.164 0.074 1.8-2.023 4.669-4.495 6.141-1.033 0.617-3.026 1.498-4.747 0.477-0.499-0.298-0.533-0.606-0.506-0.84 0.168-1.467 3.696-5.151 4.824-5.511-1.354 0.433-5.533 3.425-5.763 5.403-0.057 0.509 0.062 1.225 0.964 1.758 1.585 0.944 3.615 0.775 5.712-0.476 2.762-1.646 5.022-4.83 4.954-6.964 1.408-0.451 7.593-2.635 11.894-8.834l5.813 3.144c-0.89 1.417-3.305 2.381-6.049 3.471-3.414 1.358-7.28 2.897-9.711 5.859-0.853 1.039 0.31 2.691 1.216 3.708l-16.455 9.181-4.698-1.256 2.854 2.286-3.485 1.942c-1.873-0.816-6.66-2.549-8.685-0.021-1.863 2.328-11.661 6.405-14.495 7.553L21.181 63.803zM56.866 57.899l-0.727 3.113-0.201-2.527-0.642-0.592c-0.007-0.012-0.016-0.019-0.027-0.025l-1.226-1.132L56.866 57.899zM17.328 61.75c0.607-0.493 1.37-1.302 2.319-2.636 1.008-1.41 6.018-3.54 11.603-5.594 8.737-3.208 18.535-6.52 18.941-9.851 0.453-3.722 5.017-7.428 13.559-11.009 0.924-0.388 4.512-1.872 5.28-2.184 3.389-1.378 2.927-1.168 5.041-3.031l6.056 3.274c-3.897 5.597-8.958 8.17-10.39 8.814-0.208-0.445-0.54-0.805-1.021-1.041-3.984-1.957-10.219 0.473-12.147 1.814-3.107 2.161-2.54 3.994-2.161 5.206 0.272 0.881 0.375 1.209-0.466 1.619C53.7 47.249 29.457 59.026 25.597 60.243c-2.713 0.853-4.412 2.278-5.237 3.122L17.328 61.75zM92.159 37.222L73.98 47.363c-0.896-0.982-1.692-2.198-1.336-2.635 2.276-2.773 6.074-4.753 9.383-6.068 2.905-1.157 5.436-1.837 6.467-3.42L92.159 37.222zM93.174 42.669L33.962 75.706v-3.854l21.425-11.954 0.753 2.648 1.437-3.924 35.598-19.808V42.669zM6.95 58.358l25.124 13.385v3.998L6.95 62.357V58.358z" fill="#000000" data-fill-palette-color="accent"></path></svg></g></svg></g><g></g></svg></g><defs></defs></svg><rect width="395.52" height="136.49002096392098" fill="none" stroke="none" visibility="hidden"></rect></g></svg></g></svg>